<svg width="32" height="25" viewBox="0 0 32 25" fill="none" xmlns="http://www.w3.org/2000/svg">
<path d="M26.9779 14.0846V23.2328C26.9779 23.5632 26.8572 23.8491 26.6158 24.0905C26.3744 24.3319 26.0885 24.4526 25.7582 24.4526H18.4395V17.134H13.5604V24.4526H6.2418C5.91145 24.4526 5.62556 24.3319 5.38415 24.0905C5.14274 23.8491 5.02203 23.5632 5.02203 23.2328V14.0846C5.02203 14.0718 5.02521 14.0528 5.03156 14.0274C5.03791 14.002 5.04109 13.9829 5.04109 13.9702L16 4.93626L26.9589 13.9702C26.9716 13.9956 26.9779 14.0337 26.9779 14.0846ZM31.2281 12.7695L30.0464 14.1799C29.9448 14.2942 29.8114 14.3641 29.6462 14.3895H29.589C29.4238 14.3895 29.2904 14.345 29.1888 14.2561L16 3.25908L2.81119 14.2561C2.65872 14.3577 2.50625 14.4022 2.35378 14.3895C2.1886 14.3641 2.05519 14.2942 1.95354 14.1799L0.771883 12.7695C0.670235 12.6424 0.625764 12.4931 0.63847 12.3216C0.651176 12.1501 0.721059 12.0135 0.848119 11.9118L14.5515 0.495532C14.9581 0.165177 15.4409 0 16 0C16.5591 0 17.0419 0.165177 17.4485 0.495532L22.0989 4.38356V0.667063C22.0989 0.489179 22.156 0.343061 22.2704 0.228707C22.3847 0.114354 22.5309 0.0571768 22.7087 0.0571768H26.3681C26.5459 0.0571768 26.6921 0.114354 26.8064 0.228707C26.9208 0.343061 26.9779 0.489179 26.9779 0.667063V8.44311L31.1519 11.9118C31.2789 12.0135 31.3488 12.1501 31.3615 12.3216C31.3742 12.4931 31.3297 12.6424 31.2281 12.7695Z" fill="white"/>
</svg>
