<svg width="20" height="20" viewBox="0 0 20 20" fill="none" xmlns="http://www.w3.org/2000/svg">
<path d="M15.3408 3.46C15.1035 3.46 14.8714 3.53038 14.6741 3.66224C14.4768 3.79409 14.323 3.98151 14.2321 4.20078C14.1413 4.42005 14.1175 4.66133 14.1639 4.89411C14.2102 5.12689 14.3244 5.34071 14.4923 5.50853C14.6601 5.67635 14.8739 5.79064 15.1067 5.83694C15.3395 5.88324 15.5807 5.85948 15.8 5.76866C16.0193 5.67783 16.2067 5.52402 16.3386 5.32668C16.4704 5.12935 16.5408 4.89734 16.5408 4.66C16.5408 4.34174 16.4144 4.03652 16.1893 3.81147C15.9643 3.58643 15.6591 3.46 15.3408 3.46ZM19.9408 5.88C19.9213 5.0503 19.7659 4.2294 19.4808 3.45C19.2265 2.78313 18.8308 2.17928 18.3208 1.68C17.8256 1.16743 17.2204 0.774176 16.5508 0.53C15.7734 0.236161 14.9516 0.07721 14.1208 0.0599999C13.0608 -5.58794e-08 12.7208 0 10.0008 0C7.28079 0 6.94079 -5.58794e-08 5.88079 0.0599999C5.04995 0.07721 4.22814 0.236161 3.45079 0.53C2.78247 0.776649 2.17773 1.16956 1.68079 1.68C1.16822 2.17518 0.77497 2.78044 0.530793 3.45C0.236954 4.22734 0.0780035 5.04915 0.0607934 5.88C0.000793401 6.94 0.000793457 7.28 0.000793457 10C0.000793457 12.72 0.000793401 13.06 0.0607934 14.12C0.0780035 14.9508 0.236954 15.7727 0.530793 16.55C0.77497 17.2196 1.16822 17.8248 1.68079 18.32C2.17773 18.8304 2.78247 19.2234 3.45079 19.47C4.22814 19.7638 5.04995 19.9228 5.88079 19.94C6.94079 20 7.28079 20 10.0008 20C12.7208 20 13.0608 20 14.1208 19.94C14.9516 19.9228 15.7734 19.7638 16.5508 19.47C17.2204 19.2258 17.8256 18.8326 18.3208 18.32C18.833 17.8226 19.2291 17.2182 19.4808 16.55C19.7659 15.7706 19.9213 14.9497 19.9408 14.12C19.9408 13.06 20.0008 12.72 20.0008 10C20.0008 7.28 20.0008 6.94 19.9408 5.88ZM18.1408 14C18.1335 14.6348 18.0185 15.2637 17.8008 15.86C17.6411 16.2952 17.3847 16.6884 17.0508 17.01C16.7264 17.3405 16.334 17.5964 15.9008 17.76C15.3045 17.9778 14.6756 18.0927 14.0408 18.1C13.0408 18.15 12.6708 18.16 10.0408 18.16C7.41079 18.16 7.04079 18.16 6.04079 18.1C5.38168 18.1123 4.72539 18.0109 4.10079 17.8C3.68658 17.6281 3.31215 17.3728 3.00079 17.05C2.66888 16.7287 2.41564 16.3352 2.26079 15.9C2.01665 15.2952 1.88124 14.6519 1.86079 14C1.86079 13 1.80079 12.63 1.80079 10C1.80079 7.37 1.80079 7 1.86079 6C1.86528 5.35106 1.98374 4.70795 2.21079 4.1C2.38684 3.67791 2.65706 3.30166 3.00079 3C3.30461 2.65617 3.68008 2.3831 4.10079 2.2C4.71034 1.98004 5.35279 1.86508 6.00079 1.86C7.00079 1.86 7.37079 1.8 10.0008 1.8C12.6308 1.8 13.0008 1.8 14.0008 1.86C14.6356 1.86728 15.2645 1.98225 15.8608 2.2C16.3152 2.36865 16.7231 2.64285 17.0508 3C17.3785 3.30718 17.6346 3.68273 17.8008 4.1C18.023 4.70893 18.1381 5.35178 18.1408 6C18.1908 7 18.2008 7.37 18.2008 10C18.2008 12.63 18.1908 13 18.1408 14ZM10.0008 4.87C8.9866 4.87198 7.99576 5.17453 7.15345 5.73942C6.31114 6.30431 5.65517 7.1062 5.26843 8.04375C4.88168 8.98131 4.78152 10.0125 4.98059 11.0069C5.17966 12.0014 5.66903 12.9145 6.38687 13.631C7.10471 14.3474 8.0188 14.835 9.01365 15.0321C10.0085 15.2293 11.0395 15.1271 11.9763 14.7385C12.9131 14.35 13.7137 13.6924 14.2769 12.849C14.8402 12.0056 15.1408 11.0142 15.1408 10C15.1421 9.3251 15.01 8.65661 14.752 8.03296C14.4941 7.40931 14.1154 6.84281 13.6377 6.36605C13.16 5.88929 12.5927 5.51168 11.9686 5.25493C11.3444 4.99818 10.6757 4.86736 10.0008 4.87ZM10.0008 13.33C9.34218 13.33 8.69836 13.1347 8.15074 12.7688C7.60313 12.4029 7.17631 11.8828 6.92427 11.2743C6.67223 10.6659 6.60629 9.99631 6.73478 9.35035C6.86327 8.70439 7.18042 8.11104 7.64613 7.64533C8.11184 7.17963 8.70519 6.86247 9.35114 6.73398C9.9971 6.6055 10.6667 6.67144 11.2751 6.92348C11.8836 7.17552 12.4037 7.60234 12.7696 8.14995C13.1355 8.69757 13.3308 9.34139 13.3308 10C13.3308 10.4373 13.2447 10.8703 13.0773 11.2743C12.91 11.6784 12.6647 12.0454 12.3555 12.3547C12.0462 12.6639 11.6791 12.9092 11.2751 13.0765C10.8711 13.2439 10.4381 13.33 10.0008 13.33Z" fill="white"/>
</svg>
