<svg width="20" height="20" viewBox="0 0 20 20" fill="none" xmlns="http://www.w3.org/2000/svg">
<path d="M18.4092 0.000139831H1.46921C1.27878 -0.00250479 1.08971 0.0323873 0.912772 0.102824C0.735837 0.17326 0.57451 0.27786 0.438004 0.410652C0.301498 0.543443 0.192488 0.701824 0.117198 0.876749C0.0419089 1.05167 0.00181494 1.23972 -0.000793457 1.43014V18.5701C0.00181494 18.7606 0.0419089 18.9486 0.117198 19.1235C0.192488 19.2985 0.301498 19.4568 0.438004 19.5896C0.57451 19.7224 0.735837 19.827 0.912772 19.8975C1.08971 19.9679 1.27878 20.0028 1.46921 20.0001H18.4092C18.5996 20.0028 18.7887 19.9679 18.9656 19.8975C19.1426 19.827 19.3039 19.7224 19.4404 19.5896C19.5769 19.4568 19.6859 19.2985 19.7612 19.1235C19.8365 18.9486 19.8766 18.7606 19.8792 18.5701V1.43014C19.8766 1.23972 19.8365 1.05167 19.7612 0.876749C19.6859 0.701824 19.5769 0.543443 19.4404 0.410652C19.3039 0.27786 19.1426 0.17326 18.9656 0.102824C18.7887 0.0323873 18.5996 -0.00250479 18.4092 0.000139831ZM6.02921 16.7401H3.02921V7.74014H6.02921V16.7401ZM4.52921 6.48014C4.11547 6.48014 3.71868 6.31578 3.42612 6.02323C3.13356 5.73067 2.96921 5.33388 2.96921 4.92014C2.96921 4.5064 3.13356 4.10961 3.42612 3.81705C3.71868 3.5245 4.11547 3.36014 4.52921 3.36014C4.7489 3.33522 4.97138 3.35699 5.18208 3.42402C5.39278 3.49105 5.58695 3.60183 5.75186 3.7491C5.91678 3.89637 6.04873 4.07682 6.13908 4.27862C6.22942 4.48043 6.27612 4.69904 6.27612 4.92014C6.27612 5.14124 6.22942 5.35985 6.13908 5.56166C6.04873 5.76346 5.91678 5.94391 5.75186 6.09118C5.58695 6.23845 5.39278 6.34923 5.18208 6.41626C4.97138 6.48329 4.7489 6.50505 4.52921 6.48014ZM16.8492 16.7401H13.8492V11.9101C13.8492 10.7001 13.4192 9.91014 12.3292 9.91014C11.9919 9.91261 11.6634 10.0184 11.388 10.2133C11.1127 10.4082 10.9037 10.6828 10.7892 11.0001C10.711 11.2352 10.677 11.4827 10.6892 11.7301V16.7301H7.68921C7.68921 16.7301 7.68921 8.55014 7.68921 7.73014H10.6892V9.00014C10.9617 8.52725 11.3581 8.13766 11.8356 7.87334C12.3132 7.60902 12.8538 7.47999 13.3992 7.50014C15.3992 7.50014 16.8492 8.79014 16.8492 11.5601V16.7401Z" fill="white"/>
</svg>
