<svg width="45" height="45" viewBox="0 0 45 45" fill="none" xmlns="http://www.w3.org/2000/svg">
<path d="M22.5 0C18.0499 0 13.6998 1.3196 9.99968 3.79193C6.29957 6.26426 3.41569 9.77828 1.71272 13.8896C0.00974882 18.001 -0.435826 22.525 0.432341 26.8895C1.30051 31.2541 3.44343 35.2632 6.59011 38.4099C9.73679 41.5566 13.7459 43.6995 18.1105 44.5677C22.475 45.4358 26.999 44.9903 31.1104 43.2873C35.2217 41.5843 38.7357 38.7004 41.2081 35.0003C43.6804 31.3002 45 26.9501 45 22.5C45 19.5453 44.418 16.6194 43.2873 13.8896C42.1566 11.1598 40.4992 8.67941 38.4099 6.5901C36.3206 4.50078 33.8402 2.84344 31.1104 1.71271C28.3806 0.58198 25.4547 0 22.5 0ZM22.5 40.5C18.9399 40.5 15.4598 39.4443 12.4997 37.4664C9.53966 35.4886 7.23255 32.6774 5.87018 29.3883C4.5078 26.0992 4.15134 22.48 4.84587 18.9884C5.54041 15.4967 7.25474 12.2894 9.77209 9.77208C12.2894 7.25473 15.4967 5.5404 18.9884 4.84586C22.48 4.15133 26.0992 4.50779 29.3883 5.87017C32.6774 7.23254 35.4886 9.53965 37.4665 12.4997C39.4443 15.4598 40.5 18.9399 40.5 22.5C40.5 27.2739 38.6036 31.8523 35.2279 35.2279C31.8523 38.6036 27.2739 40.5 22.5 40.5ZM31.5 20.25H13.5C12.9033 20.25 12.331 20.487 11.909 20.909C11.4871 21.331 11.25 21.9033 11.25 22.5C11.25 23.0967 11.4871 23.669 11.909 24.091C12.331 24.5129 12.9033 24.75 13.5 24.75H31.5C32.0967 24.75 32.669 24.5129 33.091 24.091C33.513 23.669 33.75 23.0967 33.75 22.5C33.75 21.9033 33.513 21.331 33.091 20.909C32.669 20.487 32.0967 20.25 31.5 20.25Z" fill="white"/>
</svg>
