<svg width="18" height="16" viewBox="0 0 18 16" fill="none" xmlns="http://www.w3.org/2000/svg">
<path d="M18 2.69548C17.3235 2.98897 16.6081 3.18298 15.876 3.27148C16.6484 2.81007 17.2271 2.08419 17.505 1.22848C16.7792 1.66054 15.9847 1.96495 15.156 2.12848C14.6021 1.5278 13.8645 1.12795 13.0588 0.991648C12.2532 0.855347 11.4251 0.990304 10.7044 1.37535C9.98373 1.7604 9.41124 2.37376 9.07672 3.11924C8.74219 3.86471 8.66456 4.70013 8.856 5.49448C7.38848 5.42026 5.953 5.03814 4.64279 4.37296C3.33258 3.70778 2.17696 2.77441 1.251 1.63348C0.926224 2.20063 0.755567 2.84292 0.756 3.49648C0.754848 4.10343 0.903795 4.70124 1.18958 5.23669C1.47536 5.77214 1.88912 6.22862 2.394 6.56548C1.80718 6.54952 1.2329 6.39205 0.72 6.10648V6.15148C0.724398 7.00189 1.02239 7.82467 1.56358 8.48065C2.10477 9.13664 2.85593 9.58556 3.69 9.75148C3.36893 9.84919 3.03559 9.90071 2.7 9.90448C2.4677 9.90177 2.23598 9.8807 2.007 9.84148C2.24452 10.573 2.70416 11.2123 3.32197 11.6704C3.93977 12.1285 4.68502 12.3827 5.454 12.3975C4.15548 13.4192 2.55229 13.9769 0.9 13.9815C0.599162 13.9825 0.298562 13.9644 0 13.9275C1.68699 15.0167 3.65293 15.5949 5.661 15.5925C7.04672 15.6069 8.42142 15.345 9.7048 14.8222C10.9882 14.2993 12.1545 13.526 13.1357 12.5473C14.1168 11.5687 14.8932 10.4043 15.4193 9.1223C15.9454 7.84026 16.2108 6.46624 16.2 5.08048C16.2 4.92748 16.2 4.76548 16.2 4.60348C16.9062 4.07681 17.5153 3.43116 18 2.69548Z" fill="white"/>
</svg>
